<svg width="315" height="18" viewBox="0 0 315 18" fill="none" xmlns="http://www.w3.org/2000/svg">
<g clip-path="url(#clip0_1_394)">
<path fill-rule="evenodd" clip-rule="evenodd" d="M9.8125 13.977L4.04485 17.7564L5.85693 11.1031L0.480255 6.78564L7.36782 6.45306L9.8125 0.00537109L12.2572 6.45306L19.1447 6.78564L13.7681 11.1031L15.5801 17.7564L9.8125 13.977Z" fill="#FFC54F"/>
</g>
<g clip-path="url(#clip1_1_394)">
<path fill-rule="evenodd" clip-rule="evenodd" d="M34.4375 13.977L28.6699 17.7564L30.4819 11.1031L25.1053 6.78564L31.9928 6.45306L34.4375 0.00537109L36.8822 6.45306L43.7697 6.78564L38.3931 11.1031L40.2051 17.7564L34.4375 13.977Z" fill="#FFC54F"/>
</g>
<g clip-path="url(#clip2_1_394)">
<path fill-rule="evenodd" clip-rule="evenodd" d="M59.0625 13.977L53.2949 17.7564L55.1069 11.1031L49.7303 6.78564L56.6178 6.45306L59.0625 0.00537109L61.5072 6.45306L68.3947 6.78564L63.0181 11.1031L64.8301 17.7564L59.0625 13.977Z" fill="#FFC54F"/>
</g>
<g clip-path="url(#clip3_1_394)">
<path fill-rule="evenodd" clip-rule="evenodd" d="M83.6875 13.977L77.9199 17.7564L79.7319 11.1031L74.3553 6.78564L81.2428 6.45306L83.6875 0.00537109L86.1322 6.45306L93.0197 6.78564L87.6431 11.1031L89.4551 17.7564L83.6875 13.977Z" fill="#FFC54F"/>
</g>
<g clip-path="url(#clip4_1_394)">
<path fill-rule="evenodd" clip-rule="evenodd" d="M108.312 13.977L102.545 17.7564L104.357 11.1031L98.9803 6.78564L105.868 6.45306L108.312 0.00537109L110.757 6.45306L117.645 6.78564L112.268 11.1031L114.08 17.7564L108.312 13.977Z" fill="#FFC54F"/>
</g>
<defs>
<clipPath id="clip0_1_394">
<rect width="19.625" height="17.9896" fill="white" transform="translate(0 0.00537109)"/>
</clipPath>
<clipPath id="clip1_1_394">
<rect width="19.625" height="17.9896" fill="white" transform="translate(24.625 0.00537109)"/>
</clipPath>
<clipPath id="clip2_1_394">
<rect width="19.625" height="17.9896" fill="white" transform="translate(49.25 0.00537109)"/>
</clipPath>
<clipPath id="clip3_1_394">
<rect width="19.625" height="17.9896" fill="white" transform="translate(73.875 0.00537109)"/>
</clipPath>
<clipPath id="clip4_1_394">
<rect width="19.625" height="17.9896" fill="white" transform="translate(98.5 0.00537109)"/>
</clipPath>
</defs>
</svg>
