<?xml version="1.0" standalone="no"?>
<!DOCTYPE svg PUBLIC "-//W3C//DTD SVG 20010904//EN"
 "http://www.w3.org/TR/2001/REC-SVG-20010904/DTD/svg10.dtd">
<svg version="1.0" xmlns="http://www.w3.org/2000/svg"
 width="225.000000pt" height="225.000000pt" viewBox="0 0 225.000000 225.000000"
 preserveAspectRatio="xMidYMid meet">

<g transform="translate(0.000000,225.000000) scale(0.100000,-0.100000)"
fill="#000000" stroke="none">
<path d="M1010 2165 c-186 -53 -310 -219 -310 -416 l0 -69 -129 0 c-91 0 -132
-4 -139 -12 -6 -8 -22 -213 -37 -473 -14 -253 -35 -602 -45 -775 -11 -200 -15
-321 -9 -332 9 -17 57 -18 784 -18 729 0 775 1 784 18 6 11 1 161 -14 422 -13
223 -34 572 -46 775 -11 204 -26 376 -31 383 -7 8 -48 12 -139 12 l-129 0 0
69 c0 179 -108 340 -270 402 -73 28 -197 34 -270 14z m237 -97 c41 -15 74 -38
114 -77 70 -70 99 -141 99 -241 l0 -70 -335 0 -335 0 0 70 c0 100 29 171 99
241 97 97 230 125 358 77z m-549 -683 c2 -183 4 -212 19 -222 23 -17 30 -16
53 7 19 19 20 33 20 225 l0 205 335 0 335 0 0 -205 c0 -192 1 -206 20 -225 22
-22 29 -24 50 -10 12 8 16 48 20 222 l5 213 95 0 95 0 36 -640 c20 -352 39
-675 41 -717 l5 -78 -704 0 -703 0 5 38 c3 20 21 334 41 697 19 363 37 670 40
683 4 22 8 23 97 20 l92 -3 3 -210z"/>
</g>
</svg>
